<?xml version="1.0" encoding="utf-8"?>
<!-- Generator: Adobe Illustrator 25.2.1, SVG Export Plug-In . SVG Version: 6.00 Build 0)  -->
<svg version="1.1" id="Capa_1" xmlns="http://www.w3.org/2000/svg" xmlns:xlink="http://www.w3.org/1999/xlink" x="0px" y="0px"
	 viewBox="0 0 96 96" style="enable-background:new 0 0 96 96;" xml:space="preserve">
<style type="text/css">
	.st0{display:none;}
	.st1{display:inline;}
	.st2{fill:none;stroke:#F1F1F1;stroke-width:3;stroke-linecap:round;stroke-miterlimit:10;}
	.st3{fill:#F1F1F1;}
</style>
<g class="st0">
	<g class="st1">
		<g>
			<line class="st2" x1="22.74" y1="29.84" x2="71.94" y2="29.84"/>
			<line class="st2" x1="22.74" y1="46.92" x2="71.94" y2="46.92"/>
			<line class="st2" x1="22.74" y1="62.97" x2="71.94" y2="62.97"/>
		</g>
	</g>
</g>
<g>
	<path class="st3" d="M62.1,36.67h-5.37l-6.72,17.85c-3.89-2.13-6.52-4.35-9.15-6.98c7.48-7.48,8.15-16.31,8.15-16.31h5.44V25.8
		H38.82v-4.76h-6.12v4.76H16.4v5.44h27.18c0,0,0,7.48-6.8,12.91c0,0-4.08-3.4-6.8-9.51h-5.44c0.68,4.08,7.43,11.61,8.83,12.91
		c-6.12,4.76-7.48,5.44-12.91,8.83l2.72,4.08c0,0,9.51-5.44,13.59-8.83c3.3,2.75,6.6,5.5,11.35,7.89l-4.61,12.25h4.87l3.81-10.51
		h13.77l3.66,10.51h5.21L62.1,36.67z M53.6,57.38l5.62-15.51l5.4,15.51H53.6z"/>
	<path class="st3" d="M37.01,51.85C37.26,52.1,37.15,51.99,37.01,51.85L37.01,51.85z"/>
</g>
</svg>
