<?xml version="1.0" encoding="utf-8"?>
<!-- Generator: Adobe Illustrator 25.2.1, SVG Export Plug-In . SVG Version: 6.00 Build 0)  -->
<svg version="1.1" id="Capa_1" xmlns="http://www.w3.org/2000/svg" xmlns:xlink="http://www.w3.org/1999/xlink" x="0px" y="0px"
	 viewBox="0 0 96 96" style="enable-background:new 0 0 96 96;" xml:space="preserve">
<style type="text/css">
	.st0{display:none;}
	.st1{display:inline;}
	.st2{fill:none;stroke:#F1F1F1;stroke-width:3;stroke-linecap:round;stroke-miterlimit:10;}
	.st3{display:inline;fill:#F1F1F1;}
	.st4{display:inline;fill-rule:evenodd;clip-rule:evenodd;fill:#F1F1F1;}
	.st5{fill:#F1F1F1;}
</style>
<g class="st0">
	<g class="st1">
		<g>
			<line class="st2" x1="22.74" y1="29.84" x2="71.94" y2="29.84"/>
			<line class="st2" x1="22.74" y1="46.92" x2="71.94" y2="46.92"/>
			<line class="st2" x1="22.74" y1="62.97" x2="71.94" y2="62.97"/>
		</g>
	</g>
</g>
<g class="st0">
	<path class="st3" d="M62.1,36.67h-5.37l-6.72,17.85c-3.89-2.13-6.52-4.35-9.15-6.98c7.48-7.48,8.15-16.31,8.15-16.31h5.44V25.8
		H38.82v-4.76h-6.12v4.76H16.4v5.44h27.18c0,0,0,7.48-6.8,12.91c0,0-4.08-3.4-6.8-9.51h-5.44c0.68,4.08,7.43,11.61,8.83,12.91
		c-6.12,4.76-7.48,5.44-12.91,8.83l2.72,4.08c0,0,9.51-5.44,13.59-8.83c3.3,2.75,6.6,5.5,11.35,7.89l-4.61,12.25h4.87l3.81-10.51
		h13.77l3.66,10.51h5.21L62.1,36.67z M53.6,57.38l5.62-15.51l5.4,15.51H53.6z"/>
	<path class="st3" d="M37.01,51.85C37.26,52.1,37.15,51.99,37.01,51.85L37.01,51.85z"/>
</g>
<g class="st0">
	<path class="st4" d="M39.01,39.02c-0.64,23.91,1.19,28.91,1.11,32.17c-0.02,0.93-1.07,1.73-2.96,2.26
		c-1.86-0.63-2.86-1.48-2.84-2.41c0.08-3.27,2.17-8.16,2.76-32.07c0,0,0-0.01,0-0.01c0.06-2.25-3.18-1.69-3.06-6.53
		c0.12-4.83,1.25-10.8,1.25-10.93c0-0.12,0.25-0.15,0.24,0.01c0,0.16-0.16,9.34-0.17,9.67c-0.01,0.32,0.31,0.49,0.55,0.5
		c-0.08,0,1.28,0.01,1.19,0.01c0.25,0.01,0.57-0.15,0.58-0.47c0.01-0.32,0.66-9.81,0.66-9.98c0-0.16,0.33-0.15,0.32,0.01
		c0,0.16-0.01,9.69-0.01,10.01c0,0.43,0.23,0.4,0.87,0.4c-0.07,0,0.63,0.01,0.87,0.02c-0.08,0,0.26,0,0.18,0
		c0.24,0.01,0.57-0.15,0.58-0.47c0.01-0.32,0.34-9.38,0.35-9.54c0-0.16,0.25-0.15,0.24,0.01c0,0.16,0.78,7.35,0.68,10.98
		C42.28,37.48,39.07,36.76,39.01,39.02C39.01,39.02,39.01,39.02,39.01,39.02L39.01,39.02z"/>
	<path class="st4" d="M60.17,70.98c0.07-2.79-1.25-6.84-1.24-22.83l0.02-3.14l0,0c0.02-1.56,0.05-3.21,0.09-4.98
		c0.08-3.18,0.19-7.51,0.31-12.19c0.2-7.71-0.23-8.08-1.65-8.12c-2.73-0.07-4.68,13.97-4.81,18.81c-0.12,4.59,3.74,3.82,4.07,5.67
		c-0.01,0.23-0.02,0.46-0.03,0.68l-0.15,3.28c-0.81,15.92-2.34,19.88-2.41,22.67c-0.02,0.93,0.98,1.78,2.84,2.41
		C59.1,72.71,60.14,71.91,60.17,70.98z"/>
</g>
<g>
	<polygon class="st5" points="63.58,31.37 46.36,59.63 29.15,31.37 20.91,31.37 46.36,73.14 71.81,31.37 	"/>
	<polygon class="st5" points="38.43,22.64 54.3,22.64 46.36,35.67 	"/>
	<polygon class="st5" points="55.11,26.5 46.36,40.86 37.62,26.5 29.34,26.5 46.36,54.45 63.38,26.5 	"/>
</g>
</svg>
